<mxfile host="app.diagrams.net" modified="2024-04-12T07:05:41.916Z" agent="Mozilla/5.0 (Macintosh; Intel Mac OS X 10_15_7) AppleWebKit/537.36 (KHTML, like Gecko) Chrome/123.0.0.0 Safari/537.36" version="24.2.3" etag="RhmyLv2SjWwFRms9Ekha" type="github">
  <diagram name="Trang-1" id="wAJXq-z0RQoUJBSPvWfQ">
    <mxGraphModel>
      <root>
        <mxCell id="0" />
        <mxCell id="1" parent="0" />
      </root>
    </mxGraphModel>
  </diagram>
</mxfile>
